<?xml version="1.0" standalone="no"?>
<!DOCTYPE svg PUBLIC "-//W3C//DTD SVG 20010904//EN"
 "http://www.w3.org/TR/2001/REC-SVG-20010904/DTD/svg10.dtd">
<svg version="1.0" xmlns="http://www.w3.org/2000/svg"
 width="1177.000000pt" height="1177.000000pt" viewBox="0 0 1177.000000 1177.000000"
 preserveAspectRatio="xMidYMid meet">
<metadata>
Created by potrace 1.14, written by Peter Selinger 2001-2017
</metadata>
<g transform="translate(0.000000,1177.000000) scale(0.100000,-0.100000)"
fill="#000000" stroke="none">
<path d="M8436 9022 c-84 -82 -192 -183 -286 -270 l-55 -51 26 -28 c49 -54
314 -349 354 -393 22 -24 67 -74 101 -110 33 -36 103 -113 155 -171 52 -58
175 -195 274 -304 99 -109 205 -226 235 -260 30 -34 134 -149 231 -256 948
-1044 1009 -1114 1009 -1144 0 -22 -15 -46 -58 -94 -31 -36 -205 -232 -386
-435 -181 -204 -361 -407 -401 -451 -39 -44 -107 -120 -150 -170 -43 -49 -101
-115 -129 -145 -28 -31 -116 -129 -196 -220 -121 -136 -274 -309 -444 -500
-17 -19 -81 -91 -141 -159 -61 -69 -151 -170 -201 -225 -148 -164 -264 -299
-264 -306 0 -4 37 -42 83 -85 45 -44 132 -128 193 -187 61 -59 117 -108 125
-108 8 0 51 42 96 93 45 50 94 106 110 122 15 17 91 101 168 185 76 85 156
173 176 195 42 47 239 264 284 315 18 19 79 87 136 150 57 63 118 131 135 150
45 51 328 364 334 370 3 3 46 50 95 105 76 84 132 146 180 199 49 53 292 322
335 371 30 34 199 221 375 416 309 341 320 355 320 394 0 38 -9 51 -165 225
-91 101 -208 231 -260 290 -100 113 -569 636 -631 705 -114 126 -268 298 -515
575 -33 37 -159 178 -359 400 -66 74 -138 154 -160 179 -22 25 -85 95 -140
156 -55 61 -189 211 -299 333 -109 122 -200 222 -203 222 -3 0 -42 -35 -87
-78z"/>
<path d="M3059 8874 c-107 -120 -239 -268 -294 -329 -55 -61 -118 -131 -140
-156 -22 -25 -94 -105 -160 -179 -200 -222 -326 -363 -359 -400 -247 -277
-401 -449 -515 -575 -62 -69 -531 -592 -631 -705 -52 -59 -169 -189 -260 -290
-156 -174 -165 -187 -165 -225 0 -39 11 -53 320 -394 176 -195 345 -382 375
-416 65 -73 307 -341 365 -404 22 -24 45 -49 50 -55 30 -34 191 -212 195 -216
6 -6 289 -319 334 -370 17 -19 78 -87 135 -150 57 -63 118 -131 136 -150 17
-19 80 -89 140 -155 118 -131 124 -138 275 -305 57 -63 124 -137 150 -165 25
-27 88 -97 139 -155 52 -58 102 -114 112 -124 17 -19 20 -16 136 95 65 63 155
150 201 194 45 43 82 81 82 85 0 7 -116 142 -264 306 -50 55 -140 156 -201
225 -60 68 -124 140 -141 159 -170 191 -323 364 -444 500 -80 91 -168 189
-196 220 -28 30 -86 96 -129 145 -43 50 -111 126 -150 170 -40 44 -220 247
-401 451 -181 203 -355 399 -386 435 -43 48 -58 72 -58 94 0 30 61 100 1009
1144 97 107 201 222 231 256 30 34 136 151 235 260 99 109 222 246 274 304 52
58 122 135 155 171 34 36 79 86 101 110 40 44 305 339 354 393 l26 28 -55 51
c-30 28 -122 114 -204 192 -82 77 -156 142 -166 144 -11 2 -83 -71 -211 -214z"/>
<path d="M6041 7230 c-2 -44 -40 -169 -73 -233 -39 -78 -153 -194 -228 -232
-131 -67 -274 -95 -477 -95 -73 0 -446 18 -830 40 -593 33 -719 38 -841 30
-452 -29 -654 -200 -734 -622 -19 -106 -21 -154 -25 -740 l-5 -628 71 0 71 0
0 43 c0 80 21 212 46 286 47 139 118 210 259 258 l80 27 895 7 c492 4 906 9
920 12 14 3 61 11 105 17 332 47 540 173 660 401 39 75 90 222 100 292 7 47
25 56 25 13 0 -47 51 -203 97 -296 39 -79 61 -109 132 -180 94 -94 168 -137
316 -183 215 -67 374 -76 1318 -77 639 0 759 -2 824 -16 243 -50 345 -181 375
-483 l11 -121 64 0 63 0 0 583 c0 340 -4 619 -11 672 -49 426 -198 627 -523
706 -175 42 -308 42 -1066 -1 -872 -50 -974 -50 -1155 -4 -222 56 -379 216
-431 439 -9 39 -20 79 -25 90 -7 18 -8 18 -8 -5z"/>
</g>
</svg>
